<svg width="24" height="24" viewBox="0 0 24 24" fill="none" xmlns="http://www.w3.org/2000/svg">
<path fill-rule="evenodd" clip-rule="evenodd" d="M9.99981 3H7.99947C7.44724 3 6.99957 3.44767 6.99957 3.9999C6.99957 4.55213 7.44724 4.9998 7.99947 4.9998H9.99981C10.552 4.9998 10.9997 4.55213 10.9997 3.9999C10.9997 3.44767 10.552 3 9.99981 3ZM7.99947 1C6.69332 1 5.58213 1.83475 5.17029 2.99988H4C2.34315 2.99988 1 4.34302 1 5.99988V17.9993C1 19.6562 2.34315 20.9993 4 20.9993H7.55127C8.04308 20.9993 8.51942 20.8788 8.9429 20.657L9.15157 22.0082C9.23587 22.554 9.74523 22.9193 10.2893 22.8242L12.9708 22.3555C13.2317 22.3099 13.4659 22.1623 13.622 21.9451L21.5688 10.8893L22.5391 9.53937C22.9992 8.89934 23.191 8.10639 23.0719 7.33494C22.9528 6.5635 22.5325 5.87756 21.9041 5.42781C21.2758 4.97811 20.491 4.80133 19.7224 4.93571C18.9537 5.07009 18.2633 5.50475 17.8033 6.1447L16.9988 7.26396L16.9987 5.9997C16.9986 4.34292 15.6555 2.99988 13.9987 2.99988H12.829C12.4172 1.83475 11.306 1 9.99981 1H7.99947ZM4 4.99988H5.17028C5.5821 6.16503 6.6933 6.9998 7.99947 6.9998H9.99981C11.306 6.9998 12.4172 6.16503 12.829 4.99988H13.9987C14.551 4.99988 14.9987 5.44756 14.9987 5.99982L14.9989 8.86507C14.9989 9.07161 14.935 9.27308 14.8159 9.44182L11.5984 14H9C8.44772 14 8 14.4477 8 15C8 15.5523 8.44772 16 9 16H10.1866L8.36824 18.576C8.18086 18.8415 7.87619 18.9993 7.55127 18.9993H4C3.44771 18.9993 3 18.5516 3 17.9993V5.99988C3 5.44759 3.44772 4.99988 4 4.99988ZM6.05271 12.0665C6.60842 12.0665 7.05891 11.616 7.05891 11.0602C7.05891 10.5044 6.60842 10.0538 6.05271 10.0538C5.497 10.0538 5.04651 10.5044 5.04651 11.0602C5.04651 11.616 5.497 12.0665 6.05271 12.0665ZM7.05891 15.087C7.05891 15.6428 6.60842 16.0934 6.05271 16.0934C5.497 16.0934 5.04651 15.6428 5.04651 15.087C5.04651 14.5312 5.497 14.0807 6.05271 14.0807C6.60842 14.0807 7.05891 14.5312 7.05891 15.087ZM9.11639 10.0672C8.56411 10.0672 8.11639 10.5149 8.11639 11.0672C8.11639 11.6195 8.56411 12.0672 9.11639 12.0672H12.1164C12.6687 12.0672 13.1164 11.6195 13.1164 11.0672C13.1164 10.5149 12.6687 10.0672 12.1164 10.0672H9.11639ZM19.4111 7.30044C19.5585 7.09538 19.7802 6.95553 20.0276 6.91227C20.2751 6.86902 20.5272 6.92604 20.7285 7.07014C20.9297 7.21419 21.0638 7.43341 21.1018 7.67936C21.1398 7.92531 21.0787 8.17864 20.9314 8.38362L20.5481 8.91683L19.0302 7.83037L19.4111 7.30044ZM17.8514 9.4704L19.3693 10.5569L12.2581 20.4501L10.9691 20.6755L10.7618 19.3336L17.8514 9.4704Z" fill="#111827"/>
</svg>
