<svg width="30" height="30" viewBox="0 0 30 30" fill="none" xmlns="http://www.w3.org/2000/svg">
<path d="M3 9H5L5.4 11M5.4 11H21L17 19H7M5.4 11L7 19M7 19L4.707 21.293C4.077 21.923 4.523 23 5.414 23H17M17 23C16.4696 23 15.9609 23.2107 15.5858 23.5858C15.2107 23.9609 15 24.4696 15 25C15 25.5304 15.2107 26.0391 15.5858 26.4142C15.9609 26.7893 16.4696 27 17 27C17.5304 27 18.0391 26.7893 18.4142 26.4142C18.7893 26.0391 19 25.5304 19 25C19 24.4696 18.7893 23.9609 18.4142 23.5858C18.0391 23.2107 17.5304 23 17 23ZM9 25C9 25.5304 8.78929 26.0391 8.41421 26.4142C8.03914 26.7893 7.53043 27 7 27C6.46957 27 5.96086 26.7893 5.58579 26.4142C5.21071 26.0391 5 25.5304 5 25C5 24.4696 5.21071 23.9609 5.58579 23.5858C5.96086 23.2107 6.46957 23 7 23C7.53043 23 8.03914 23.2107 8.41421 23.5858C8.78929 23.9609 9 24.4696 9 25Z" stroke="#111827" stroke-width="2" stroke-linecap="round" stroke-linejoin="round"/>
<path d="M25.5 3V6.5M25.5 6.5V10M25.5 6.5H29M25.5 6.5H22" stroke="#111827" stroke-width="2" stroke-linecap="round" stroke-linejoin="round"/>
</svg>
