<svg width="250" height="74" viewBox="0 0 250 74" fill="none" xmlns="http://www.w3.org/2000/svg">
<path d="M106 36.7394C106 19.6842 91.9664 5.85881 74.6544 5.85881C70.5133 5.85881 66.5678 6.65207 62.9443 8.09127C57.952 3.09372 51.0157 0 43.3432 0C28.6194 0 16.5873 11.423 15.8856 25.7583C6.57971 29.4753 0 38.4619 0 48.9783C0 62.7923 11.3765 74 25.3986 74C28.6309 74 31.7137 73.4107 34.555 72.3228C34.555 72.3228 43.3663 68.9231 51.9935 68.2205C60.1836 67.5519 73.297 67.6199 74.5854 67.6199C74.6084 67.6199 74.6199 67.6199 74.6429 67.6199C74.6544 67.6199 74.6544 67.6199 74.6659 67.6199C74.6889 67.6199 74.7004 67.6199 74.7004 67.6199C91.9894 67.5972 106 53.7832 106 36.7394Z" fill="#F97316"/>
<path d="M68.9033 49.3522C60.7247 49.3522 54.0645 42.7908 54.0645 34.7336C54.0645 26.6763 60.7247 20.1149 68.9033 20.1149C77.0819 20.1149 83.7421 26.6763 83.7421 34.7336C83.7421 42.7908 77.0819 49.3522 68.9033 49.3522ZM68.9033 26.9143C64.5322 26.9143 60.9662 30.4273 60.9662 34.7336C60.9662 39.0398 64.5322 42.5528 68.9033 42.5528C73.2744 42.5528 76.8403 39.0398 76.8403 34.7336C76.8403 30.4273 73.2744 26.9143 68.9033 26.9143Z" fill="white"/>
<path d="M88.515 47.5957C90.2303 47.5957 91.6208 46.2258 91.6208 44.5359C91.6208 42.8461 90.2303 41.4762 88.515 41.4762C86.7997 41.4762 85.4092 42.8461 85.4092 44.5359C85.4092 46.2258 86.7997 47.5957 88.515 47.5957Z" fill="white"/>
<path d="M51.7056 23.8885C51.6941 22.0187 50.1527 20.5115 48.2547 20.5115C48.2432 20.5115 48.2432 20.5115 48.2317 20.5115C46.3222 20.5228 44.7923 22.0527 44.8038 23.9338C44.8038 23.9678 44.7923 26.8576 43.7686 30.8465C43.0784 33.521 41.8015 37.136 39.4894 40.7397C37.741 39.7084 35.3599 38.0652 33.4964 35.9574C30.149 32.1724 29.3783 27.1182 29.3668 27.0729V27.0842H29.3438C29.0677 25.475 27.6529 24.2511 25.9389 24.2511C24.0294 24.2511 22.488 25.7697 22.488 27.6508C22.488 27.9681 22.534 28.2741 22.6146 28.5688C22.9482 30.3593 24.271 35.9008 28.2855 40.4224C30.4596 42.8815 33.0708 44.7853 35.1758 46.0998C28.0785 53.6018 23.0977 55.1317 23.0057 55.177C21.2687 55.9476 20.498 57.9648 21.2802 59.676C21.8554 60.9338 23.1092 61.6818 24.432 61.6818C24.9037 61.6818 25.3868 61.5798 25.8469 61.3758C26.3415 61.1605 32.9903 58.996 41.8936 48.9216C51.6826 37.8273 51.7056 24.4551 51.7056 23.8885Z" fill="white"/>
<path d="M102.366 4.92951C100.56 4.34023 98.6043 5.30347 98.0061 7.08265L89.678 36.6486C89.6204 36.83 89.5859 37.0113 89.5859 37.2039C89.5859 38.2125 90.4142 39.0284 91.4379 39.0284C92.2086 39.0284 92.8758 38.5638 93.1519 37.8952H93.1634L104.551 9.22445C105.161 7.45661 104.183 5.53012 102.366 4.92951Z" fill="white"/>
<path d="M138.55 55C135.217 55 132.45 54.5333 130.25 53.6C128.05 52.6333 126.383 51.3833 125.25 49.85C124.117 48.3167 123.517 46.6833 123.45 44.95C123.45 44.6833 123.55 44.45 123.75 44.25C123.983 44.0167 124.25 43.9 124.55 43.9H130.85C131.317 43.9 131.667 43.9833 131.9 44.15C132.167 44.3167 132.4 44.5333 132.6 44.8C132.867 45.3 133.233 45.7833 133.7 46.25C134.2 46.7167 134.833 47.1 135.6 47.4C136.4 47.6667 137.383 47.8 138.55 47.8C140.483 47.8 141.933 47.5 142.9 46.9C143.9 46.3 144.4 45.4833 144.4 44.45C144.4 43.7167 144.133 43.1167 143.6 42.65C143.067 42.15 142.2 41.7167 141 41.35C139.833 40.95 138.267 40.55 136.3 40.15C133.767 39.6167 131.6 38.9333 129.8 38.1C128.033 37.2333 126.683 36.1167 125.75 34.75C124.817 33.35 124.35 31.6167 124.35 29.55C124.35 27.5167 124.917 25.7 126.05 24.1C127.217 22.5 128.833 21.25 130.9 20.35C132.967 19.45 135.417 19 138.25 19C140.55 19 142.567 19.3 144.3 19.9C146.067 20.5 147.55 21.3 148.75 22.3C149.95 23.3 150.85 24.3667 151.45 25.5C152.083 26.6 152.417 27.6833 152.45 28.75C152.45 29.0167 152.35 29.2667 152.15 29.5C151.95 29.7 151.7 29.8 151.4 29.8H144.8C144.433 29.8 144.117 29.7333 143.85 29.6C143.583 29.4667 143.35 29.25 143.15 28.95C142.95 28.2167 142.417 27.5833 141.55 27.05C140.717 26.4833 139.617 26.2 138.25 26.2C136.783 26.2 135.633 26.4667 134.8 27C134 27.5 133.6 28.2833 133.6 29.35C133.6 30.0167 133.817 30.6 134.25 31.1C134.717 31.6 135.467 32.0333 136.5 32.4C137.567 32.7667 139.017 33.15 140.85 33.55C143.883 34.1167 146.333 34.8333 148.2 35.7C150.067 36.5333 151.433 37.6333 152.3 39C153.167 40.3333 153.6 42.0167 153.6 44.05C153.6 46.3167 152.95 48.2833 151.65 49.95C150.383 51.5833 148.617 52.8333 146.35 53.7C144.083 54.5667 141.483 55 138.55 55ZM159.305 54.5C158.939 54.5 158.639 54.3833 158.405 54.15C158.172 53.9167 158.055 53.6167 158.055 53.25V20.25C158.055 19.8833 158.172 19.5833 158.405 19.35C158.639 19.1167 158.939 19 159.305 19H165.705C166.072 19 166.372 19.1167 166.605 19.35C166.839 19.5833 166.955 19.8833 166.955 20.25V31.4C167.855 30.3667 168.955 29.55 170.255 28.95C171.589 28.3167 173.122 28 174.855 28C176.789 28 178.505 28.4333 180.005 29.3C181.539 30.1667 182.739 31.45 183.605 33.15C184.472 34.8167 184.905 36.8667 184.905 39.3V53.25C184.905 53.6167 184.789 53.9167 184.555 54.15C184.322 54.3833 184.022 54.5 183.655 54.5H177.205C176.872 54.5 176.572 54.3833 176.305 54.15C176.072 53.9167 175.955 53.6167 175.955 53.25V39.6C175.955 38.0333 175.572 36.8333 174.805 36C174.072 35.1333 172.972 34.7 171.505 34.7C170.139 34.7 169.039 35.1333 168.205 36C167.372 36.8333 166.955 38.0333 166.955 39.6V53.25C166.955 53.6167 166.839 53.9167 166.605 54.15C166.372 54.3833 166.072 54.5 165.705 54.5H159.305ZM202.875 55C200.075 55 197.708 54.55 195.775 53.65C193.875 52.75 192.408 51.4667 191.375 49.8C190.375 48.1 189.808 46.0833 189.675 43.75C189.642 43.0833 189.625 42.3333 189.625 41.5C189.625 40.6333 189.642 39.8833 189.675 39.25C189.808 36.8833 190.408 34.8667 191.475 33.2C192.542 31.5333 194.025 30.25 195.925 29.35C197.858 28.45 200.175 28 202.875 28C205.608 28 207.925 28.45 209.825 29.35C211.758 30.25 213.258 31.5333 214.325 33.2C215.392 34.8667 215.992 36.8833 216.125 39.25C216.158 39.8833 216.175 40.6333 216.175 41.5C216.175 42.3333 216.158 43.0833 216.125 43.75C215.992 46.0833 215.408 48.1 214.375 49.8C213.375 51.4667 211.908 52.75 209.975 53.65C208.075 54.55 205.708 55 202.875 55ZM202.875 48.9C204.375 48.9 205.458 48.45 206.125 47.55C206.825 46.65 207.225 45.3 207.325 43.5C207.358 43 207.375 42.3333 207.375 41.5C207.375 40.6667 207.358 40 207.325 39.5C207.225 37.7333 206.825 36.4 206.125 35.5C205.458 34.5667 204.375 34.1 202.875 34.1C201.408 34.1 200.325 34.5667 199.625 35.5C198.925 36.4 198.542 37.7333 198.475 39.5C198.442 40 198.425 40.6667 198.425 41.5C198.425 42.3333 198.442 43 198.475 43.5C198.542 45.3 198.925 46.65 199.625 47.55C200.325 48.45 201.408 48.9 202.875 48.9ZM222.343 64C221.976 64 221.676 63.8833 221.443 63.65C221.209 63.4167 221.093 63.1167 221.093 62.75V29.75C221.093 29.3833 221.209 29.0833 221.443 28.85C221.676 28.6167 221.976 28.5 222.343 28.5H227.993C228.326 28.5 228.609 28.6167 228.843 28.85C229.109 29.0833 229.243 29.3833 229.243 29.75V31.6C230.009 30.5667 231.026 29.7167 232.293 29.05C233.559 28.35 235.126 28 236.993 28C238.659 28 240.126 28.2667 241.393 28.8C242.659 29.3 243.743 30.05 244.643 31.05C245.543 32.05 246.243 33.2667 246.743 34.7C247.276 36.1333 247.576 37.7833 247.643 39.65C247.676 40.3167 247.693 40.9333 247.693 41.5C247.693 42.0667 247.676 42.6833 247.643 43.35C247.576 45.15 247.293 46.7667 246.793 48.2C246.293 49.6333 245.593 50.85 244.693 51.85C243.793 52.85 242.693 53.6333 241.393 54.2C240.126 54.7333 238.659 55 236.993 55C235.359 55 233.926 54.7167 232.693 54.15C231.493 53.55 230.493 52.7167 229.693 51.65V62.75C229.693 63.1167 229.576 63.4167 229.343 63.65C229.109 63.8833 228.809 64 228.443 64H222.343ZM234.293 48.3C235.426 48.3 236.309 48.0667 236.943 47.6C237.576 47.1333 238.026 46.5 238.293 45.7C238.593 44.9 238.776 44.0167 238.843 43.05C238.909 42.0167 238.909 40.9833 238.843 39.95C238.776 38.9833 238.593 38.1 238.293 37.3C238.026 36.5 237.576 35.8667 236.943 35.4C236.309 34.9333 235.426 34.7 234.293 34.7C233.193 34.7 232.309 34.95 231.643 35.45C230.976 35.9167 230.493 36.5333 230.193 37.3C229.893 38.0667 229.726 38.9 229.693 39.8C229.659 40.4333 229.643 41.05 229.643 41.65C229.643 42.25 229.659 42.8833 229.693 43.55C229.726 44.3833 229.909 45.1667 230.243 45.9C230.576 46.6 231.076 47.1833 231.743 47.65C232.409 48.0833 233.259 48.3 234.293 48.3Z" fill="#215988"/>
</svg>
