<svg width="19" height="22" viewBox="0 0 19 22" fill="none" xmlns="http://www.w3.org/2000/svg">
<path d="M4.00514 8.85012C4.5252 8.85012 4.9468 8.42852 4.9468 7.90846C4.9468 7.38839 4.5252 6.9668 4.00514 6.9668C3.48507 6.9668 3.06348 7.38839 3.06348 7.90846C3.06348 8.42852 3.48507 8.85012 4.00514 8.85012Z" fill="#6B7280"/>
<path d="M1.44166 11.7446C1.96173 11.7446 2.38332 11.323 2.38332 10.8029C2.38332 10.2829 1.96173 9.86133 1.44166 9.86133C0.9216 9.86133 0.5 10.2829 0.5 10.8029C0.5 11.323 0.9216 11.7446 1.44166 11.7446Z" fill="#6B7280"/>
<path fill-rule="evenodd" clip-rule="evenodd" d="M17.7278 1.73225C16.6619 1.18018 15.3503 1.59668 14.7983 2.66253L12.387 7.31777C12.3741 7.34273 12.3629 7.36814 12.3535 7.39385C11.1724 7.35335 10.0024 7.8751 9.21331 8.79859C8.28361 9.88662 7.13985 11.074 6.16245 11.6803C4.76895 12.5448 3.61695 12.8563 2.90157 12.9669C2.48316 13.0316 2.14356 13.301 1.97813 13.6503C1.80533 14.0152 1.81836 14.4933 2.15415 14.8633C2.88417 15.6678 4.30741 16.9854 6.9179 18.6457C8.72601 19.7956 10.3471 20.4316 11.2195 20.7263C11.8881 20.9521 12.6027 20.6939 12.9863 20.1193C13.4714 19.3928 14.3232 18.0229 15.0546 16.3559C15.5957 15.1227 16.0619 13.8517 16.508 12.5828C16.8843 11.5124 16.715 10.3834 16.1429 9.49092L18.6558 4.66611C19.2111 3.59981 18.7953 2.2852 17.7278 1.73225ZM15.1952 8.49628L17.5028 4.0656C17.726 3.6371 17.5589 3.1088 17.1299 2.88659C16.7015 2.66473 16.1745 2.83211 15.9526 3.26044L13.662 7.68277C13.7387 7.71531 13.8148 7.75068 13.8902 7.78892L14.7272 8.2133C14.8921 8.29688 15.0483 8.39165 15.1952 8.49628ZM15.2816 12.1516C15.189 12.4151 15.0913 12.689 14.9901 12.9681L9.71471 10.1997C9.88461 10.0103 10.0475 9.82352 10.2017 9.64312C10.9869 8.72416 12.2756 8.42785 13.3023 8.94842L14.1393 9.37282C15.1706 9.89562 15.6582 11.0805 15.2816 12.1516ZM6.84775 12.785C7.48918 12.3871 8.15851 11.8056 8.78661 11.1806L8.79501 11.1851L14.5321 14.1959C14.3114 14.7697 14.0846 15.3311 13.8642 15.8336C13.1735 17.4077 12.365 18.7087 11.9052 19.3974C11.8396 19.4955 11.7332 19.5277 11.6355 19.4947C11.2518 19.3651 10.7036 19.1612 10.0502 18.8655C10.3535 18.5457 10.7934 18.0229 11.215 17.3047C11.3972 16.9943 11.2919 16.6003 10.9798 16.4246C10.6678 16.249 10.2671 16.3582 10.085 16.6686C9.74611 17.2459 9.33221 17.8146 8.82471 18.2581C8.43761 18.0492 8.03191 17.8136 7.61555 17.5487C7.27701 17.3334 6.95997 17.1246 6.66319 16.9228C6.81761 16.8189 6.98694 16.6916 7.16872 16.5357C7.4421 16.3012 7.46925 15.8959 7.22936 15.6304C6.98947 15.365 6.57338 15.3398 6.3 15.5743C5.89765 15.9193 5.61663 16.0506 5.50336 16.0949C4.46831 15.3172 3.77484 14.6787 3.32604 14.2131C4.19553 14.0514 5.42379 13.6684 6.84775 12.785Z" fill="#6B7280"/>
</svg>
