<svg width="24" height="24" viewBox="0 0 24 24" fill="none" xmlns="http://www.w3.org/2000/svg">
<path d="M17 17H19C19.5304 17 20.0391 16.7893 20.4142 16.4142C20.7893 16.0391 21 15.5304 21 15V11C21 10.4696 20.7893 9.96086 20.4142 9.58579C20.0391 9.21071 19.5304 9 19 9H5C4.46957 9 3.96086 9.21071 3.58579 9.58579C3.21071 9.96086 3 10.4696 3 11V15C3 15.5304 3.21071 16.0391 3.58579 16.4142C3.96086 16.7893 4.46957 17 5 17H7M9 21H15C15.5304 21 16.0391 20.7893 16.4142 20.4142C16.7893 20.0391 17 19.5304 17 19V15C17 14.4696 16.7893 13.9609 16.4142 13.5858C16.0391 13.2107 15.5304 13 15 13H9C8.46957 13 7.96086 13.2107 7.58579 13.5858C7.21071 13.9609 7 14.4696 7 15V19C7 19.5304 7.21071 20.0391 7.58579 20.4142C7.96086 20.7893 8.46957 21 9 21ZM17 9V5C17 4.46957 16.7893 3.96086 16.4142 3.58579C16.0391 3.21071 15.5304 3 15 3H9C8.46957 3 7.96086 3.21071 7.58579 3.58579C7.21071 3.96086 7 4.46957 7 5V9H17Z" stroke="#9C81E8" stroke-linecap="round" stroke-linejoin="round"/>
<rect x="11" y="12" width="12" height="12" rx="1" fill="white"/>
<g clip-path="url(#clip0_13418_87244)">
<rect width="10" height="10" transform="translate(12 13)" fill="white"/>
<path d="M12.9375 13.625C12.8546 13.625 12.7751 13.6579 12.7165 13.7165C12.6579 13.7751 12.625 13.8546 12.625 13.9375V15.8125C12.625 15.8954 12.5921 15.9749 12.5335 16.0335C12.4749 16.0921 12.3954 16.125 12.3125 16.125C12.2296 16.125 12.1501 16.0921 12.0915 16.0335C12.0329 15.9749 12 15.8954 12 15.8125V13.9375C12 13.6889 12.0988 13.4504 12.2746 13.2746C12.4504 13.0988 12.6889 13 12.9375 13H14.8125C14.8954 13 14.9749 13.0329 15.0335 13.0915C15.0921 13.1501 15.125 13.2296 15.125 13.3125C15.125 13.3954 15.0921 13.4749 15.0335 13.5335C14.9749 13.5921 14.8954 13.625 14.8125 13.625H12.9375ZM18.875 13.3125C18.875 13.2296 18.9079 13.1501 18.9665 13.0915C19.0251 13.0329 19.1046 13 19.1875 13H21.0625C21.3111 13 21.5496 13.0988 21.7254 13.2746C21.9012 13.4504 22 13.6889 22 13.9375V15.8125C22 15.8954 21.9671 15.9749 21.9085 16.0335C21.8499 16.0921 21.7704 16.125 21.6875 16.125C21.6046 16.125 21.5251 16.0921 21.4665 16.0335C21.4079 15.9749 21.375 15.8954 21.375 15.8125V13.9375C21.375 13.8546 21.3421 13.7751 21.2835 13.7165C21.2249 13.6579 21.1454 13.625 21.0625 13.625H19.1875C19.1046 13.625 19.0251 13.5921 18.9665 13.5335C18.9079 13.4749 18.875 13.3954 18.875 13.3125ZM12.3125 19.875C12.3954 19.875 12.4749 19.9079 12.5335 19.9665C12.5921 20.0251 12.625 20.1046 12.625 20.1875V22.0625C12.625 22.1454 12.6579 22.2249 12.7165 22.2835C12.7751 22.3421 12.8546 22.375 12.9375 22.375H14.8125C14.8954 22.375 14.9749 22.4079 15.0335 22.4665C15.0921 22.5251 15.125 22.6046 15.125 22.6875C15.125 22.7704 15.0921 22.8499 15.0335 22.9085C14.9749 22.9671 14.8954 23 14.8125 23H12.9375C12.6889 23 12.4504 22.9012 12.2746 22.7254C12.0988 22.5496 12 22.3111 12 22.0625V20.1875C12 20.1046 12.0329 20.0251 12.0915 19.9665C12.1501 19.9079 12.2296 19.875 12.3125 19.875ZM21.6875 19.875C21.7704 19.875 21.8499 19.9079 21.9085 19.9665C21.9671 20.0251 22 20.1046 22 20.1875V22.0625C22 22.3111 21.9012 22.5496 21.7254 22.7254C21.5496 22.9012 21.3111 23 21.0625 23H19.1875C19.1046 23 19.0251 22.9671 18.9665 22.9085C18.9079 22.8499 18.875 22.7704 18.875 22.6875C18.875 22.6046 18.9079 22.5251 18.9665 22.4665C19.0251 22.4079 19.1046 22.375 19.1875 22.375H21.0625C21.1454 22.375 21.2249 22.3421 21.2835 22.2835C21.3421 22.2249 21.375 22.1454 21.375 22.0625V20.1875C21.375 20.1046 21.4079 20.0251 21.4665 19.9665C21.5251 19.9079 21.6046 19.875 21.6875 19.875ZM13.875 15.8125C13.875 15.7296 13.9079 15.6501 13.9665 15.5915C14.0251 15.5329 14.1046 15.5 14.1875 15.5C14.2704 15.5 14.3499 15.5329 14.4085 15.5915C14.4671 15.6501 14.5 15.7296 14.5 15.8125V20.1875C14.5 20.2704 14.4671 20.3499 14.4085 20.4085C14.3499 20.4671 14.2704 20.5 14.1875 20.5C14.1046 20.5 14.0251 20.4671 13.9665 20.4085C13.9079 20.3499 13.875 20.2704 13.875 20.1875V15.8125ZM15.125 15.8125C15.125 15.7296 15.1579 15.6501 15.2165 15.5915C15.2751 15.5329 15.3546 15.5 15.4375 15.5C15.5204 15.5 15.5999 15.5329 15.6585 15.5915C15.7171 15.6501 15.75 15.7296 15.75 15.8125V20.1875C15.75 20.2704 15.7171 20.3499 15.6585 20.4085C15.5999 20.4671 15.5204 20.5 15.4375 20.5C15.3546 20.5 15.2751 20.4671 15.2165 20.4085C15.1579 20.3499 15.125 20.2704 15.125 20.1875V15.8125ZM16.375 15.8125C16.375 15.7296 16.4079 15.6501 16.4665 15.5915C16.5251 15.5329 16.6046 15.5 16.6875 15.5C16.7704 15.5 16.8499 15.5329 16.9085 15.5915C16.9671 15.6501 17 15.7296 17 15.8125V20.1875C17 20.2704 16.9671 20.3499 16.9085 20.4085C16.8499 20.4671 16.7704 20.5 16.6875 20.5C16.6046 20.5 16.5251 20.4671 16.4665 20.4085C16.4079 20.3499 16.375 20.2704 16.375 20.1875V15.8125ZM17.625 15.8125C17.625 15.7296 17.6579 15.6501 17.7165 15.5915C17.7751 15.5329 17.8546 15.5 17.9375 15.5H18.5625C18.6454 15.5 18.7249 15.5329 18.7835 15.5915C18.8421 15.6501 18.875 15.7296 18.875 15.8125V20.1875C18.875 20.2704 18.8421 20.3499 18.7835 20.4085C18.7249 20.4671 18.6454 20.5 18.5625 20.5H17.9375C17.8546 20.5 17.7751 20.4671 17.7165 20.4085C17.6579 20.3499 17.625 20.2704 17.625 20.1875V15.8125ZM19.5 15.8125C19.5 15.7296 19.5329 15.6501 19.5915 15.5915C19.6501 15.5329 19.7296 15.5 19.8125 15.5C19.8954 15.5 19.9749 15.5329 20.0335 15.5915C20.0921 15.6501 20.125 15.7296 20.125 15.8125V20.1875C20.125 20.2704 20.0921 20.3499 20.0335 20.4085C19.9749 20.4671 19.8954 20.5 19.8125 20.5C19.7296 20.5 19.6501 20.4671 19.5915 20.4085C19.5329 20.3499 19.5 20.2704 19.5 20.1875V15.8125Z" fill="#9C81E8"/>
</g>
<defs>
<clipPath id="clip0_13418_87244">
<rect width="10" height="10" fill="white" transform="translate(12 13)"/>
</clipPath>
</defs>
</svg>
